<!--?xml version="1.0" encoding="UTF-8" standalone="no"?-->
<!--
************* Copyright (c) 2015 Pareto Softare, LLC DBA Simplemaps.com *******************		
************* Offered under the MIT License http://opensource.org/licenses/MIT ************
************* Attribution is appreciated! http://simplemaps.com ***************************
-->
<svg xmlns:dc="http://purl.org/dc/elements/1.1/" xmlns:cc="http://creativecommons.org/ns#" xmlns:rdf="http://www.w3.org/1999/02/22-rdf-syntax-ns#" xmlns:svg="http://www.w3.org/2000/svg" xmlns="http://www.w3.org/2000/svg" xmlns:sodipodi="http://sodipodi.sourceforge.net/DTD/sodipodi-0.dtd" xmlns:inkscape="http://www.inkscape.org/namespaces/inkscape" enable_background="new 0 0 1000 1001" height="1001px" pretty_print="False" style="stroke-linejoin: round; stroke: rgb(0, 0, 0); fill: none;" version="1.1" viewBox="0 0 1000 1001" width="1000px" id="svg2" inkscape:version="0.48.4 r9939" sodipodi:docname="africa.svg">
  <sodipodi:namedview pagecolor="#ffffff" bordercolor="#666666" borderopacity="1" objecttolerance="10" gridtolerance="10" guidetolerance="10" inkscape:pageopacity="0" inkscape:pageshadow="2" inkscape:window-width="640" inkscape:window-height="480" id="namedview68" showgrid="false" inkscape:zoom="0.33342098" inkscape:cx="603.38628" inkscape:cy="543.55784" inkscape:window-x="1456" inkscape:window-y="314" inkscape:window-maximized="0" inkscape:current-layer="svg2"></sodipodi:namedview>
  <defs id="defs4">
    <style type="text/css" id="style6">path { fill-rule: evenodd; }</style>
  </defs>
  <metadata id="metadata8">
    <views id="views10">
      <view h="1001" padding="0" w="1000" id="view12">
        <proj flip="auto" id="robinson" lon0="100.0"></proj>
        <bbox h="1210.83" w="1011.29" x="-258.56" y="-626.99" id="bbox15"></bbox>
      </view>
    </views>
    <rdf:rdf>
      <cc:work rdf:about="">
        <dc:format>image/svg+xml</dc:format>
        <dc:type rdf:resource="http://purl.org/dc/dcmitype/StillImage"></dc:type>
      </cc:work>
    </rdf:rdf>
  </metadata>
  <path inkscape:connector-curvature="0" id="AO" data-name="Angola" data-id="AO" d="m 495.3,598.6 -36,-0.2 -4.3,1.7 -3.5,-0.3 -5.1,1.9 -1.1,2.7 6,8.7 2.4,9.3 3.6,13.4 -3.8,5.5 -0.6,2.8 2.9,8.3 3.1,8.4 3.6,5 0.6,7.8 -1.4,10.3 -4,6.1 -7.1,9.1 -2.9,5.6 -4.1,12.5 -0.8,5.9 -4.3,12.7 -1.9,12.2 1,8.7 5.9,-2.7 7.2,-2.3 7.8,0.4 7.1,6.3 1.9,-1 48.8,-0.6 8.2,6.6 29.1,2 22.4,-5.7 -7.6,-8.6 -7.8,-11.3 1.6,-44 25.3,0.1 -1,-4.7 2,-5.2 -2,-6.5 1.5,-6.7 -1.2,-4.3 -5.5,-0.8 -7.6,2 -5.3,-0.3 -3,1.3 0.9,-16.5 -3.9,-5.1 -0.8,-8.5 1.9,-8.4 -2.4,-5.3 -0.1,-8.7 -14.8,0.1 1.1,-5 -6.2,0.1 -0.7,2.4 -7.6,0.5 -3.1,8.1 -1.9,3.4 -6.7,-1.9 -4,1.9 -8.1,1.1 -4.6,-7.2 -2.7,-4.5 -3.5,-8.3 -2.9,-10.3 z m -47.4,-2.7 0.4,-6 2,-3.5 4.5,-2.9 -4.6,-4.8 -3.7,2.3 -5,6 3.3,10.4 3.1,-1.5 z" style="fill:#f2f2f2" class="PXXisKny_0"></path>
  <path inkscape:connector-curvature="0" id="BI" data-name="Burundi" data-id="BI" d="m 669,556.1 -0.6,-5.4 0,0 -6.5,-0.9 -3.8,7.9 -7.4,-1.1 3,6.3 0.1,2.4 4.3,13.2 0,0.6 1.2,-0.2 4.5,-5 4.9,-7.2 3,-2.9 -0.1,-4.5 -2.6,-3.2 z" style="fill:#f2f2f2" class="PXXisKny_1"></path>
  <path inkscape:connector-curvature="0" id="BJ" data-name="Benin" data-id="BJ" d="m 340,356 -9.3,-8 -4.3,0.1 -4.1,4 -2.6,4.2 -6,1.2 -2.5,6.1 -4.1,1.6 -1.6,7.2 3.7,4.1 4.3,4.9 0.4,6.8 2.5,2.8 -0.5,31.8 3,9.5 10.1,-1.6 0.6,-22.3 -0.3,-8.8 2.3,-8.7 3.7,-4.3 5.9,-8.5 -1.3,-3.7 2.4,-5.6 -2.8,-8.2 0.5,-4.6 z" style="fill:#f2f2f2" class="PXXisKny_2"></path>
  <path inkscape:connector-curvature="0" id="BF" data-name="Burkina Faso" data-id="BF" d="m 300.7,310.8 -7.8,0 -3,-2.6 -6.7,1.9 -11.3,5.8 -2.3,4.3 -9.4,6.2 -1.7,3.6 -5.1,2.8 -5.8,-1.9 -3.4,3.4 -1.8,9.5 -9.7,11.4 0.3,4.7 -3.4,5.9 0.8,8 5.5,3 2.1,4.6 5.4,2.9 4.3,-3.4 5.7,-0.6 8.3,3.6 -1.6,-10.4 0.3,-7.9 21.1,-0.6 5.4,1 3.9,-2.2 5.6,1.1 10.7,0.3 4.1,-1.6 2.5,-6.1 6,-1.2 2.6,-4.2 0.3,-9.5 -14,-3.1 -0.4,-6.7 -6.9,-9 -1.6,-6.3 1,-6.7 z" style="fill:#f2f2f2" class="PXXisKny_3"></path>
  <path inkscape:connector-curvature="0" id="BW" data-name="Botswana" data-id="BW" d="m 600.6,762.7 -2.2,-1 -6.9,3.1 -3.6,0 -7.9,5.4 -4.4,-5.7 -18.7,4.9 -9,0.4 -1.9,49.3 -11.8,0.5 -1.4,40.4 3.2,2 6.5,13.2 -1.5,8.4 2.5,4.9 8.5,-1.4 6.2,-6.2 5.8,-4.2 3.2,-6.6 6,-3.2 4.9,1.7 5.5,3.9 9.6,0.6 7.8,-3.2 1.4,-4.3 2.4,-6.6 6.5,-1.1 3.9,-5.2 4.4,-9.3 11.2,-10.3 17.3,-10.2 -7.3,-6.2 -9.2,-2.1 -3.1,-8.8 0.2,-4.9 -5.1,-1.5 -13,-15.2 -3.5,-8 -2.3,-2.4 -4.2,-11.1 z" style="fill:#f2f2f2" class="PXXisKny_4"></path>
  <path inkscape:connector-curvature="0" id="CF" data-name="Central African Rep." data-id="CF" d="m 587,398.1 -1,-0.7 -4.2,-4 -0.9,-4.3 1.9,-5.7 -0.1,-5.7 -7.2,-8.6 -1.5,-5.9 -7.7,2.3 -6,5.6 -8.6,15.1 -11.3,6.4 -11.8,-0.8 -3.4,1.2 1.2,4.9 -6.3,4.8 -5.1,5.4 -15.3,5.3 -3,-3.1 -2.1,-0.3 -2.2,3.6 -10,1 -6.1,14 -2.9,2.6 -0.8,10.7 1.2,5.8 -0.9,4.1 5.8,7.3 1,4.9 4.6,7.2 5.6,4.4 0.6,6.3 1.3,4 6.3,-12.8 7.3,-7.4 8.2,2.4 7.9,0.7 1,-9.6 4.7,-7.1 6.5,-4.4 10.1,4.7 7.8,5.1 9,1.4 9.1,2.7 3.6,-8.4 1.6,-1.1 5.6,1.4 13.5,-6.9 4.9,3 3.9,-0.5 1.8,-3.3 4.5,-1.2 9.2,1.4 7.9,0.4 4,-1.5 -2,-4.4 -9.2,-5.5 -3.2,-8.3 -5.2,-6 -8.3,-7.2 -0.1,-4.5 -6.8,-5.5 -8.4,-5.4 z" style="fill:#f2f2f2" class="PXXisKny_5"></path>
  <path inkscape:connector-curvature="0" id="CI" data-name="Côte d'Ivoire" data-id="CI" d="m 230.4,373.8 -5,2.1 -2.9,1.7 -1.8,-5.9 -3.5,1.6 -2.1,-0.3 -2.3,4 -9.4,-0.1 -3.3,-2.1 -1.6,1.3 -2.5,1.1 -1,4.7 2.8,5.7 3,11.1 -4.6,1.6 -1.1,1.9 0.9,2.7 -0.8,6.1 -1.9,0 -0.6,4 1.2,6.7 -2.7,6.1 3.6,3.8 3.8,0.9 5.2,5.8 0.3,5.5 -1.1,1.7 -1,11.4 2.3,0.4 12.1,-5.1 8.5,-4 14.5,-2.4 7.8,-0.2 8.5,2.7 5.6,-0.1 0.5,-5.5 -5.2,-11.9 3.2,-15.6 5.1,-11.6 -3.2,-19.7 -8.3,-3.6 -5.7,0.6 -4.3,3.4 -5.4,-2.9 -2.1,-4.6 -5.5,-3 z" style="fill:#f2f2f2" class="PXXisKny_6"></path>
  <path inkscape:connector-curvature="0" id="CM" data-name="Cameroon" data-id="CM" d="m 477.5,366.6 0.4,-9.2 -1,-9.1 -4.9,-8.9 -3.4,0.8 -0.4,4.4 4.9,5.5 -1.3,2.5 -0.5,4.6 -10.2,10.7 -3.1,8.8 -1.6,7.2 -2.6,3.1 -2.4,9.7 -6.4,5.7 -1.9,7 -2.7,5.6 -1.1,5.7 -8.3,4.7 -6.9,-5.7 -4.6,0.2 -7.2,8.1 -3.6,0.1 -5.7,13.4 -3.1,9.8 -0.1,3.8 3.1,2 2.5,6.2 5.6,2.3 4.8,9.2 -1.8,10.9 19.9,0.3 5.8,-0.9 7.4,1.9 7.3,-1.8 1.5,0.7 15.4,0.6 9.9,3.6 9.7,3.3 0.9,-7.5 -1.3,-4 -0.6,-6.3 -5.6,-4.4 -4.6,-7.2 -1,-4.9 -5.8,-7.3 0.9,-4.1 -1.2,-5.8 0.8,-10.7 2.9,-2.6 6.1,-14 1.8,-3.7 -3.9,-9.6 -1.8,-5.7 -5.3,-2.3 -7.2,-8.1 2.5,-6.5 5.6,1.3 3.4,-0.9 6.8,0.1 -6.8,-12.6 z" style="fill:#f2f2f2" class="PXXisKny_7"></path>
  <path inkscape:connector-curvature="0" id="CD" data-name="Dem. Rep. Congo" data-id="CD" d="m 618.3,446 -9.2,-1.4 -4.5,1.2 -1.8,3.3 -3.9,0.5 -4.9,-3 -13.5,6.9 -5.6,-1.4 -1.6,1.1 -3.6,8.4 -9.1,-2.7 -9,-1.4 -7.8,-5.1 -10.1,-4.7 -6.5,4.4 -4.7,7.1 -1,9.6 -0.7,8.4 -3.6,7.4 -2.4,8.6 -1.5,12.3 0.7,7.8 -2,4.8 -0.3,5.1 -1.4,4.4 -8.1,6.7 -5.6,7.1 -5.3,13.4 0.3,11.4 -3.1,4.4 -7.2,6.8 -7.2,8.7 -4.5,-2.5 -0.8,-3.9 -6.6,-0.1 -4.2,5.3 -3.2,-1.4 -4.5,2.9 -2,3.5 -0.4,6 -3.1,1.5 1.6,4.3 5.1,-1.9 3.5,0.3 4.3,-1.7 36,0.2 2.9,10.3 3.5,8.3 2.7,4.5 4.6,7.2 8.1,-1.1 4,-1.9 6.7,1.9 1.9,-3.4 3.1,-8.1 7.6,-0.5 0.7,-2.4 6.2,-0.1 -1.1,5 14.8,-0.1 0.1,8.7 2.4,5.3 -1.9,8.4 0.8,8.5 3.9,5.1 -0.9,16.5 3,-1.3 5.3,0.3 7.6,-2 5.5,0.8 4.2,0.3 0.6,4.3 5.7,-0.3 7.7,1.3 3.9,6.2 9.7,2 7.5,-4.4 2.6,7.3 9.2,1.9 4.3,5.9 4.8,7.6 9.3,0.1 -0.6,-14.9 -3.4,2.5 -8.4,-5.4 -3.2,-2.4 1.9,-13.9 2.5,-16.4 -2.6,-6.1 3.6,-8.8 3.3,-1.7 16.4,-2.3 2.1,0.6 0.6,-2.3 -3.4,-3.7 -1.5,-7.6 -7.3,-7.6 -4.1,-9.9 2.3,-5.8 -3.2,-7.8 2.4,-22.1 0.1,0.2 -0.1,-2.4 -3,-6.3 1.2,-7.6 1.7,-1 0.5,-8.3 3.5,-3.8 0.1,-10.5 2.9,-5.3 0.6,-11.1 2.6,-6.4 4.6,-7.2 4.7,-3.7 3.9,-4.9 -4.9,-1.9 0.6,-16.1 0,0 -10.9,-9.2 -2.9,-5.9 -6.8,2.9 -5.7,-0.9 -3.2,2.3 -5.5,-1.7 -7.5,-11.4 -4,1.5 -7.9,-0.4 z" style="fill:#f2f2f2" class="PXXisKny_8"></path>
  <path inkscape:connector-curvature="0" id="CG" data-name="Congo" data-id="CG" d="m 521.5,468.8 -7.9,-0.7 -8.2,-2.4 -7.3,7.4 -6.3,12.8 -0.9,7.5 -9.7,-3.3 -9.9,-3.6 -15.4,-0.6 -0.9,6.1 3.4,7.1 9.1,-1.1 3.1,2.7 -5.3,16.1 5.8,8.2 1.3,10.8 -1.6,9.2 -3.7,6.5 -10.8,-0.6 -6.5,-6.6 -1,6.1 -8.3,1.7 -4.2,3.5 4.6,9.1 -9.3,7.7 9.9,14.6 5,-6 3.7,-2.3 4.6,4.8 3.2,1.4 4.2,-5.3 6.6,0.1 0.8,3.9 4.5,2.5 7.2,-8.7 7.2,-6.8 3.1,-4.4 -0.3,-11.4 5.3,-13.4 5.6,-7.1 8.1,-6.7 1.4,-4.4 0.3,-5.1 2,-4.8 -0.7,-7.8 1.5,-12.3 2.4,-8.6 3.6,-7.4 0.7,-8.4 z" style="fill:#f2f2f2" class="PXXisKny_9"></path>
  <path inkscape:connector-curvature="0" id="DJ" data-name="Djibouti" data-id="DJ" d="m 820.3,358.7 -5.3,-3.8 6.8,-3.3 0.1,-5.7 -3,-4.3 -3.6,3.4 -5.2,-1.2 -4,6.1 -3.9,6.5 1.1,3.8 0.3,4.2 6.8,0.2 2.9,-0.9 2.8,2.4 4.2,-7.4 z" style="fill:#f2f2f2" class="PXXisKny_10"></path>
  <path inkscape:connector-curvature="0" id="DZ" data-name="Algeria" data-id="DZ" d="M 392.4,5.7 384.6,6.5 379.8,3.3 367.6,3.4 357,8.9 351.2,6.8 332.3,8 l -19.4,2.5 -11,4.3 -7.2,5.8 -12.4,2.4 -11.1,7.7 4.2,9 0.7,8.4 3.9,14.7 3.1,2.9 -2.2,5.4 -15.2,2.3 -5.4,5.1 -6.7,1.2 -0.6,10.2 -13.8,5.4 -4.6,7 -9.6,3.7 -11.8,2.1 -19.2,10.2 -0.2,16.3 0,1 -0.3,2.7 44.1,33.5 40,30.2 40.4,30.2 2.9,6.4 7.5,4 5.5,2.2 0.2,8.8 13.3,-1.3 16.9,-6.2 34.5,-27.1 40.5,-26.4 -5.4,-8.7 -9.6,-6.4 -5.5,2.5 -4.3,-7.7 -0.6,-5.9 -7.2,-10.1 4.6,-5.8 -1.3,-8.7 1.4,-7.6 -1,-6.3 1.8,-11.3 -0.8,-6.4 -4.1,-12.2 -5.7,-24.7 -7.3,-5.6 -0.2,-3.3 -9.7,-8.3 -1.3,-10.4 7,-7.8 2.4,-11.6 -2.3,-13.4 2.2,-7.2 z" style="fill:#f2f2f2" class="PXXisKny_11"></path>
  <path inkscape:connector-curvature="0" id="EG" data-name="Egypt" data-id="EG" d="m 628.8,88.1 -11.9,-4 -11.5,-3.7 -15.6,0.2 -3.7,6.6 2.2,5.9 -2.4,8.5 4.2,11.2 2.9,49.2 2.2,50.9 48.1,0 46.4,0 47.4,0 -2.2,-2.8 -14.7,-12.4 -0.9,-9 2.2,-2.4 -11.6,-15.3 -4.4,-7.9 -4.9,-7.5 -10.5,-21.6 -8.4,-13.9 -6.1,-14.5 1.1,-1.3 10.1,19.8 5.8,6.2 4.3,4.4 2.5,-2.4 2.7,-7.2 1.6,-10.4 2.8,-5.6 -1.5,-3.5 -8.5,-20.1 0,0 -5.4,3.4 -9.2,-0.8 -9.6,-3.2 -2.3,4.5 -3.8,-6.8 -8.5,-1.8 -10.2,1.2 -4.5,3.9 -8.6,4.4 -5.6,-2.2 z" style="fill:#f2f2f2" class="PXXisKny_12"></path>
  <path inkscape:connector-curvature="0" id="ER" data-name="Eritrea" data-id="ER" d="m 777.6,303.8 -7,-6.8 -4,-12.7 -7.8,-16 -5.7,7.9 -8.8,2.3 -3.6,4.2 -0.7,9.2 -4.3,20.3 1.5,5.6 14.3,2.9 3.3,-10.4 7.6,6.3 7,-3.2 3,2.9 8.3,0.1 10.8,5.6 3.4,4.8 5.5,4.4 5.4,8.1 4.3,4.5 5.2,1.2 3.6,-3.4 -6.2,-4.2 -4,-4.7 -6.9,-8 -7.1,-7.9 -17.1,-13 z" style="fill:#f2f2f2" class="PXXisKny_13"></path>
  <path inkscape:connector-curvature="0" id="ET" data-name="Ethiopia" data-id="ET" d="m 754.8,310.3 -3.3,10.4 -14.3,-2.9 -1.4,11.9 -4.5,13.6 -7.1,6.8 -4.8,10.6 -1.1,5.7 -5.6,3.8 -3.3,14.5 0.1,1.7 0.4,10.8 -1.8,4.2 -6.4,0.3 -4,7.9 7.5,1 6.3,6.7 2.2,5.6 5.7,3.2 7.4,15 6.4,2.4 0.1,7.7 4.2,4.6 8.5,0 15.7,11.7 3.8,0.2 2.9,-0.4 2.7,1.6 8.2,1.1 3.5,-5.8 11.1,-5.8 4.9,4.7 8.4,0 3.3,-4.4 7.8,-0.2 10.7,-9.8 15.9,-0.6 33.5,-41.5 -10.3,0.1 -40.3,-16.4 -4.8,-5 -4.6,-6.6 -4.8,-7.7 2.5,-4.9 -2.8,-2.4 -2.9,0.9 -6.8,-0.2 -0.3,-4.2 -1.1,-3.8 3.9,-6.5 4,-6.1 -4.3,-4.5 -5.4,-8.1 -5.5,-4.4 -3.4,-4.8 -10.8,-5.6 -8.3,-0.1 -3,-2.9 -7,3.2 -7.6,-6.3 z" style="fill:#f2f2f2" class="PXXisKny_14"></path>
  <path inkscape:connector-curvature="0" id="GA" data-name="Gabon" data-id="GA" d="m 455.9,485.9 -1.5,-0.7 -7.3,1.8 -7.4,-1.9 -5.8,0.9 0.1,16.7 -17.7,-0.2 -4.2,0.8 -2.4,10.3 -3,10.1 -2.7,4.4 -0.3,4.6 7.3,14.3 8.1,11.4 12.5,14 9.3,-7.7 -4.6,-9.1 4.2,-3.5 8.3,-1.7 1,-6.1 6.5,6.6 10.8,0.6 3.7,-6.5 1.6,-9.2 -1.3,-10.8 -5.8,-8.2 5.3,-16.1 -3.1,-2.7 -9.1,1.1 -3.4,-7.1 0.9,-6.1 z" style="fill:#f2f2f2" class="PXXisKny_15"></path>
  <path inkscape:connector-curvature="0" id="GH" data-name="Ghana" data-id="GH" d="m 296.4,364.9 -5.6,-1.1 -3.9,2.2 -5.4,-1 -21.1,0.6 -0.3,7.9 1.6,10.4 3.2,19.7 -5.1,11.6 -3.2,15.6 5.2,11.9 -0.5,5.5 10.9,3.9 11,-4 6.7,-4.7 19.2,-8.1 -2.8,-4.9 -3.2,-8.8 -1,-6.8 2.7,-12.5 -3,-5 -1.2,-10.9 0,-10.1 -5.1,-7.1 0.9,-4.3 z" style="fill:#f2f2f2" class="PXXisKny_16"></path>
  <path inkscape:connector-curvature="0" id="GN" data-name="Guinea" data-id="GN" d="m 156.4,345.2 -1.8,0.7 -6.6,-1.1 -0.9,1.6 -2.7,0.3 -8.7,-3.4 -5.8,-0.1 -0.3,4.7 -1.3,1.4 0.9,4.6 -1.9,1.8 -2.7,0.1 -3.2,2.3 -3.7,-0.3 -5.5,6.8 3.6,2.2 1.7,3.1 1.3,6.1 3,2.7 3.1,1.8 4.7,5.4 5.3,8.2 6.5,-6.1 1.5,-3.8 2.1,-3 3.3,-0.3 2.9,-2.6 9.7,0 3.3,5 2.6,5.8 -0.4,4 1.9,3.6 -0.1,5.1 3.3,-0.8 2.6,-0.3 3.2,-1.6 5.1,8.5 -0.9,5.6 2.4,2.9 3.4,0.1 2.6,-5.6 3.4,0.4 1.9,0 0.8,-6.1 -0.9,-2.7 1.1,-1.9 4.6,-1.6 -3,-11.1 -2.8,-5.7 1,-4.7 2.5,-1.1 -3.7,-4 0.7,-4.1 -1.6,-1.6 -2.6,1.3 0.6,-4.5 2.5,-3.5 -5,-5.8 -1.4,-3.8 -2.7,-3.1 -2.4,-0.3 -2.9,1.9 -4,1.8 -3.3,3 -5.2,-1.1 -3.3,-3.5 -2,-0.4 -3.2,1.8 -2,0 -0.6,-5 z" style="fill:#f2f2f2" class="PXXisKny_17"></path>
  <path inkscape:connector-curvature="0" id="GM" data-name="Gambia" data-id="GM" d="m 91.9,335.4 11,0.2 3,-1.9 2.2,-0.1 4.5,-3.2 5.2,2.9 5.2,0.3 5.3,-3.1 -2.4,-4 -4,2.3 -3.8,-0.1 -4.7,-3.4 -3.8,0.2 -2.8,3.3 -13.2,0.4 -1.7,6.2 z" style="fill:#f2f2f2" class="PXXisKny_18"></path>
  <path inkscape:connector-curvature="0" id="GW" data-name="Guinea-Bissau" data-id="GW" d="m 129.9,343.2 -22.4,-0.6 -3.3,1.6 -4,-0.5 -6.5,2.3 0.7,2.9 3.7,3 -0.1,2.1 2.7,3.9 5.1,0.9 6.4,5.8 5.5,-6.8 3.7,0.3 3.2,-2.3 2.7,-0.1 1.9,-1.8 -0.9,-4.6 1.3,-1.4 0.3,-4.7 z" style="fill:#f2f2f2" class="PXXisKny_19"></path>
  <path inkscape:connector-curvature="0" id="GQ" data-name="Eq. Guinea" data-id="GQ" d="m 433.9,486 -19.9,-0.3 -4.1,15.5 2.2,2.1 4.2,-0.8 17.7,0.2 -0.1,-16.7 z" style="fill:#f2f2f2" class="PXXisKny_20"></path>
  <path inkscape:connector-curvature="0" id="KE" data-name="Kenya" data-id="KE" d="m 807.2,463.1 -8.4,0 -4.9,-4.7 -11.1,5.8 -3.5,5.8 -8.2,-1.1 -2.7,-1.6 -2.9,0.4 -3.8,-0.2 -15.7,-11.7 -8.5,0 -4.2,-4.6 -0.1,-7.7 -6.4,-2.4 -8.1,9.1 -7.4,8.3 5.9,9.6 1.5,7 5.5,15.8 -4.4,10.1 -5.9,9.2 -3.5,5.6 0,0.7 2.9,5.2 -0.8,10.3 44.1,28.2 0.7,8 17.3,13.8 5,-4.6 2.5,-9.2 4,-5.5 1.9,-9.8 4.6,-1 3.1,-5.8 8.6,-5.5 -7.2,-11.4 -0.4,-50.4 10.5,-15.7 z" style="fill:#f2f2f2" class="PXXisKny_21"></path>
  <path inkscape:connector-curvature="0" id="LR" data-name="Liberia" data-id="LR" d="m 193.3,411 -3.4,-0.4 -2.6,5.6 -3.4,-0.1 -2.4,-2.9 0.9,-5.6 -5.1,-8.5 -3.2,1.6 -2.6,0.3 -5.7,6.5 -5.5,7.5 -0.7,4 -2.9,4.4 8.1,8.9 10.4,7.6 11,10.5 12.6,6.6 3.2,-0.1 1,-11.4 1.1,-1.7 -0.3,-5.5 -5.2,-5.8 -3.8,-0.9 -3.6,-3.8 2.7,-6.1 -1.2,-6.7 0.6,-4 z" style="fill:#f2f2f2" class="PXXisKny_22"></path>
  <path inkscape:connector-curvature="0" id="LY" data-name="Libya" data-id="LY" d="m 589.8,80.6 -3.1,-4.5 -11.7,-1.6 -3.9,-2.4 -4.4,0 -4.4,-6.2 -15.9,-2.8 -7.9,1.8 -7.9,6.5 -3.3,6.7 3.4,10.6 -5.3,6.3 -5.5,3.6 L 507,91.7 490.3,86 479.7,83.3 473.6,71 l -15.7,-6.1 -9.8,-2.3 -4.8,1.2 -13.8,-4.8 -0.3,10.6 -5.6,4 -3.4,4.4 -7.9,5.3 1.5,5.7 -0.9,5.8 -5.6,3.2 4.1,12.2 0.8,6.4 -1.8,11.3 1,6.3 -1.4,7.6 1.3,8.7 -4.6,5.8 7.2,10.1 0.6,5.9 4.3,7.7 5.5,-2.5 9.6,6.4 5.4,8.7 19,6 6.9,7.5 8.3,-5.1 11.9,-7.6 48.4,26.5 48.7,26.5 -0.1,-5.8 13.8,0 -1,-27.7 -2.2,-50.9 -2.9,-49.2 -4.2,-11.2 2.4,-8.5 -2.2,-5.9 3.7,-6.6 z" style="fill:#f2f2f2" class="PXXisKny_23"></path>
  <path inkscape:connector-curvature="0" id="LS" data-name="Lesotho" data-id="LS" d="m 625.3,939.9 2.5,-4.4 6.7,-2.2 2.4,-4.5 4.1,-6.7 -3.8,-4.2 -4.8,-4.2 -5.7,2.8 -6.8,5.4 -6.9,8.7 8,10.6 4.3,-1.3 z" style="fill:#f2f2f2" class="PXXisKny_24"></path>
  <path inkscape:connector-curvature="0" id="MA" data-name="Morocco" data-id="MA" d="m 271.2,30.7 -5,-0.1 -11.9,-3.1 -11,0.9 -6.8,-5.9 -8.5,-0.1 -3.8,8.6 -8,14.5 -8.7,5.7 -11.8,6.4 -7.7,9.3 -1.8,7.3 -4.8,11.8 2.5,17.2 -10.1,11.5 -6,3.7 -9.6,9.4 -11,1.6 -6.1,5.3 -0.2,0.2 -7.9,14.1 -8.1,5.1 -4.5,8.5 -0.5,7.4 -3.4,8.1 -4,2.2 -6.9,8.8 -4.4,9.8 0.7,4.6 -4.1,7.3 -4.7,3.7 -0.8,6.4 0.2,0.1 27,-1.1 1.6,-5 5,-6.2 4.4,-19.1 16.9,-15 6,-17.4 3.7,-1.1 4.2,-10.8 10,-1.4 4.2,1.8 5.4,0 3.9,-3.2 7.3,-0.4 -0.1,-7.5 0,0 1.8,0 0.2,-16.3 19.2,-10.2 11.8,-2.1 9.6,-3.7 4.6,-7 13.8,-5.4 0.6,-10.2 6.7,-1.2 5.4,-5.1 15.2,-2.3 2.2,-5.4 -3.1,-2.9 -3.9,-14.7 -0.7,-8.4 -4.2,-9 z" style="fill:#f2f2f2" class="PXXisKny_25"></path>
  <path inkscape:connector-curvature="0" id="MG" data-name="Madagascar" data-id="MG" d="m 902.9,704.8 -2.5,-9.1 -3,-5.9 -3.9,-5.9 -4.3,6.2 -0.7,8.3 -7.1,9.6 -5.1,-1.7 1.3,6 -4,6.9 -10.4,8.5 -7.3,7.9 -5.4,0.2 -4.6,2.5 -6.9,2.8 -6,0.6 -2.2,8.7 -4.7,7.8 0.2,12.7 1.7,8.7 2.4,6.6 -1.7,8.8 -6.4,10.5 -0.3,4.6 -5.7,2.4 -2.8,10 0.4,9.9 3.4,11 -0.1,12.3 2.6,7.3 9.1,5 6.5,3.5 10.9,-5.8 9.9,-3.3 6.8,-16.1 6.1,-19.2 9.3,-26.2 7.3,-19.1 5.9,-16.1 1.6,-11.7 3.5,-3.2 1.5,-5.9 -1.7,-10.2 2.6,-4.1 3.5,8.1 2.4,-4.1 1.7,-6.6 -2.8,-6.5 -1,-16.7 z" style="fill:#f2f2f2" class="PXXisKny_26"></path>
  <path inkscape:connector-curvature="0" id="ML" data-name="Mali" data-id="ML" d="m 347.4,252.3 -13.3,1.3 -0.2,-8.8 -5.5,-2.2 -7.5,-4 -2.9,-6.4 -40.4,-30.2 -40,-30.2 -18.2,0.2 5.1,59.7 5.4,59.7 2,1.8 -2.7,9.6 -48.5,0.2 -1.9,3.1 -4.6,-0.9 -6.9,2.7 -8.4,-3.8 -3.8,0.3 -2.2,8.2 -4.1,2.5 0.4,8.6 2.3,7.9 4.5,3.9 1,5.3 -0.6,4.4 0.6,5 2,0 3.2,-1.8 2,0.4 3.3,3.5 5.2,1.1 3.3,-3 4,-1.8 2.9,-1.9 2.4,0.3 2.7,3.1 1.4,3.8 5,5.8 -2.5,3.5 -0.6,4.5 2.6,-1.3 1.6,1.6 -0.7,4.1 3.7,4 1.6,-1.3 3.3,2.1 9.4,0.1 2.3,-4 2.1,0.3 3.5,-1.6 1.8,5.9 2.9,-1.7 5,-2.1 -0.8,-8 3.4,-5.9 -0.3,-4.7 9.7,-11.4 1.8,-9.5 3.4,-3.4 5.8,1.9 5.1,-2.8 1.7,-3.6 9.4,-6.2 2.3,-4.3 11.3,-5.8 6.7,-1.9 3,2.6 7.8,0 7.7,-0.6 4.5,-4.9 16.5,-1.2 10.7,-2.2 1,-8.5 6.6,-9.2 -0.3,-31.9 z" style="fill:#f2f2f2" class="PXXisKny_27"></path>
  <path inkscape:connector-curvature="0" id="MZ" data-name="Mozambique" data-id="MZ" d="m 788.2,666.2 -1.7,-6.2 0,0 0,0 -10,8.1 -13.4,5.3 -7.3,-0.2 -4.5,4.2 -8.4,0.3 -3.3,1.8 -14.4,-3.9 -4.7,0.5 -3.3,13.1 1.4,15.8 0.7,0 4.2,4.4 4.6,10 0.3,17.8 -5.4,3 -4.1,9.6 -7.5,-8.6 -0.5,-9.7 2.9,-6.5 -0.5,-5.5 -4.7,-3.5 -3.3,1.2 -6.8,-6.6 -37.1,11.4 0.8,9.9 0.6,5.1 10,-0.3 5.5,3 2.5,3.4 5.7,1 6.1,4.4 -0.8,17.5 -2.8,9.6 -1,10.4 1.7,4.1 -1.7,8.1 -1.9,1.3 -3.6,9.9 -13.4,15.7 4.7,19.5 2.5,9.9 -3,15.4 0.7,5 1.3,6.2 0.6,6.1 9,0.1 1.5,-7.3 -2.9,-0.9 -0.6,-5.8 5.5,-5.2 14.8,-7.5 10.1,-4.6 5.3,-5 2.1,-5.7 -2.7,-2.4 2.4,-6.4 1.1,-13.6 -2.2,0.7 0.1,-4.1 -1.9,-8.1 -5.2,-10.5 1.6,-9.9 5.1,-3.2 8.9,-9.8 4.7,-2.5 14.4,-14.9 14,-6.7 11.3,-5.3 8.1,-8.5 5.2,-9.6 4.1,-9.9 -1.8,-6.8 0.4,-21.6 -1,-12.2 0.9,-13.8 z" style="fill:#f2f2f2" class="PXXisKny_28"></path>
  <path inkscape:connector-curvature="0" id="MR" data-name="Mauritania" data-id="MR" d="m 237.6,171.8 -44.1,-33.5 -0.5,20.9 -38.9,-0.7 -0.4,35.4 -11.2,1.3 -3.1,7.1 1.9,20 -46.9,-0.1 -2.7,4.6 6.1,6 3,6.5 -1.4,6.9 1.3,6.9 1,13.7 -1.8,13 -3.5,6.8 0.9,7.5 4.2,-4.5 6,1.2 5.9,-3 6.8,-0.1 5.7,4 7.9,3.7 7.2,10.2 7.8,9.5 4.1,-2.5 2.2,-8.2 3.8,-0.3 8.4,3.8 6.9,-2.7 4.6,0.9 1.9,-3.1 48.5,-0.2 2.7,-9.6 -2,-1.8 -5.4,-59.7 -5.1,-59.7 18.2,-0.2 z" style="fill:#f2f2f2" class="PXXisKny_29"></path>
  <path inkscape:connector-curvature="0" id="MW" data-name="Malawi" data-id="MW" d="m 714.6,711.7 0.3,-5.2 -2.7,-4.1 0.4,-6 -3.3,-10.2 3.7,-7.7 -0.2,-16.7 -4.1,-8.9 0.4,-1.5 0,0 -2.3,-3.8 -11.9,-2.6 5.6,6.2 2.8,11.7 -2.2,3.8 -2.7,11.2 2,11.5 -4,4.8 -4.1,12.8 6.2,3.6 6.8,6.6 3.3,-1.2 4.7,3.5 0.5,5.5 -2.9,6.5 0.5,9.7 7.5,8.6 4.1,-9.6 5.4,-3 -0.3,-17.8 -4.6,-10 -4.2,-4.4 -0.7,0 0.1,1.9 2.3,0.5 2.2,7.4 -0.4,1.7 -4.1,-5.3 -2.2,3.4 -1.9,-2.9 z" style="fill:#f2f2f2" class="PXXisKny_30"></path>
  <path inkscape:connector-curvature="0" id="NA" data-name="Namibia" data-id="NA" d="m 576,759.7 -22.4,5.7 -29.1,-2 -8.2,-6.6 -48.8,0.6 -1.9,1 -7.1,-6.3 -7.8,-0.4 -7.2,2.3 -5.9,2.7 0.6,10.6 9.5,13.5 2.5,8.7 6,16.6 5.9,11.4 4.6,5.7 1.3,7.6 -0.1,16.5 3.4,21.3 2.6,10.1 2.2,13.4 4.3,10.1 8.3,10.5 6,-6.8 4.5,3.7 1.7,6 5.2,1 7.3,2.6 6.4,-1 10.8,-7.1 2.2,-51.1 1.4,-40.4 11.8,-0.5 1.9,-49.3 9,-0.4 18.7,-4.9 4.4,5.7 7.9,-5.4 3.6,0 6.9,-3.1 0,-1.2 -4.7,-3.1 -7.8,-0.8 -9.9,3.1 z" style="fill:#f2f2f2" class="PXXisKny_31"></path>
  <path inkscape:connector-curvature="0" id="NE" data-name="Niger" data-id="NE" d="m 458.3,198.6 -19,-6 -40.5,26.4 -34.5,27.1 -16.9,6.2 0.3,31.9 -6.6,9.2 -1,8.5 -10.7,2.2 -16.5,1.2 -4.5,4.9 -7.7,0.6 -1,6.7 1.6,6.3 6.9,9 0.4,6.7 14,3.1 -0.3,9.5 4.1,-4 4.3,-0.1 9.3,8 0.8,-12.4 3.5,-5.5 1.6,-8 3.2,-3 13,-1.6 12.2,5.1 4.6,5.3 6.1,0.2 5.8,-3.4 14.7,7.1 6.2,-0.3 7.1,-5.9 7.1,0.4 3.5,-1.9 6.5,0.8 9.4,4 9.4,-7.7 2.9,0.6 8.4,15.1 2.2,-0.3 0.4,-4.4 3.4,-0.8 1.1,-6.5 -7.8,-0.3 -0.1,-8.9 -5.1,-5.2 4.9,-18.2 15.2,-13 0.2,-18 4,-28.1 2.5,-6 -5.1,-4.7 -0.3,-4.4 -4.6,-3.6 -3.4,-21.5 -8.3,5.1 -6.9,-7.5 z" style="fill:#f2f2f2" class="PXXisKny_32"></path>
  <path inkscape:connector-curvature="0" id="NG" data-name="Nigeria" data-id="NG" d="m 468.2,344.6 -2.2,0.3 -8.4,-15.1 -2.9,-0.6 -9.4,7.7 -9.4,-4 -6.5,-0.8 -3.5,1.9 -7.1,-0.4 -7.1,5.9 -6.2,0.3 -14.7,-7.1 -5.8,3.4 -6.1,-0.2 -4.6,-5.3 -12.2,-5.1 -13,1.6 -3.2,3 -1.6,8 -3.5,5.5 -0.8,12.4 -0.5,4.6 2.8,8.2 -2.4,5.6 1.3,3.7 -5.9,8.5 -3.7,4.3 -2.3,8.7 0.3,8.8 -0.6,22.3 10.7,0 9.2,-0.1 8.6,9.1 4.1,10 6.5,8.6 9.8,0.3 4.7,-3.1 4.6,0.8 12.7,-5 3.1,-9.8 5.7,-13.4 3.6,-0.1 7.2,-8.1 4.6,-0.2 6.9,5.7 8.3,-4.7 1.1,-5.7 2.7,-5.6 1.9,-7 6.4,-5.7 2.4,-9.7 2.6,-3.1 1.6,-7.2 3.1,-8.8 10.2,-10.7 0.5,-4.6 1.3,-2.5 -4.9,-5.5 z" style="fill:#f2f2f2" class="PXXisKny_33"></path>
  <path inkscape:connector-curvature="0" id="RW" data-name="Rwanda" data-id="RW" d="m 667.9,533 -7.4,4.3 -2.9,-1.4 -3.5,3.8 -0.5,8.3 -1.7,1 -1.2,7.6 7.4,1.1 3.8,-7.9 6.5,0.9 0,0 3.5,-1.8 0.8,-8.1 -4.8,-7.8 z" style="fill:#f2f2f2" class="PXXisKny_34"></path>
  <path inkscape:connector-curvature="0" id="EH" data-name="W. Sahara" data-id="EH" d="m 193.8,134.6 -1.8,0 0,0 0.1,7.5 -7.3,0.4 -3.9,3.2 -5.4,0 -4.2,-1.8 -10,1.4 -4.2,10.8 -3.7,1.1 -6,17.4 -16.9,15 -4.4,19.1 -5,6.2 -1.6,5 -27,1.1 -0.2,-0.1 -0.6,5.9 2.7,-4.6 46.9,0.1 -1.9,-20 3.1,-7.1 11.2,-1.3 0.4,-35.4 38.9,0.7 0.5,-20.9 0.3,-2.7 0,-1 z" style="fill:#f2f2f2" class="PXXisKny_35"></path>
  <path inkscape:connector-curvature="0" id="SD" data-name="Sudan" data-id="SD" d="m 740,291.9 0.7,-9.2 3.6,-4.2 8.8,-2.3 5.7,-7.9 -6.9,-5.1 -4.8,-3.4 -5.3,-16.5 -2.5,-14.3 2.5,-2.5 -4.7,-13.6 -47.4,0 -46.4,0 -48.1,0 1,27.7 -13.8,0 0.1,5.8 2.4,54.9 -10.5,-0.9 -5.2,10.2 -3,8.5 2.6,3.2 -3.8,4.3 1.5,5.7 -3,5.8 -1.2,5 4.3,-0.8 2.6,5.4 0.3,8 4.6,4.1 -0.1,3.4 1.5,5.9 7.2,8.6 0.1,5.7 -1.9,5.7 0.9,4.3 4.2,4 1,0.7 3.8,-1.6 4.1,-2.6 2.9,-12.3 3.2,-6.4 8.8,-1.9 2.1,3.8 6.5,8 3.3,1.2 4.4,-2.3 8.7,0.4 1.8,2.9 12.1,0 0.3,-2.9 6.3,-2.6 1.1,-4 4.6,-2.9 10.4,8.1 6.2,-1.4 5.8,-10 6.5,-7.6 -1.3,-8.3 -3,-4 7.3,-0.8 0.7,-3 5.7,0.9 -1.2,10.2 1.7,10 6.5,5.5 1.5,4.7 0,6.9 1.7,0.3 -0.1,-1.7 3.3,-14.5 5.6,-3.8 1.1,-5.7 4.8,-10.6 7.1,-6.8 4.5,-13.6 1.4,-11.9 -1.5,-5.6 4.3,-20.3 z" style="fill:#f2f2f2" class="PXXisKny_36"></path>
  <path inkscape:connector-curvature="0" id="SS" data-name="S. Sudan" data-id="SS" d="m 707.8,379.2 -1.5,-4.7 -6.5,-5.5 -1.7,-10 1.2,-10.2 -5.7,-0.9 -0.7,3 -7.3,0.8 3,4 1.3,8.3 -6.5,7.6 -5.8,10 -6.2,1.4 -10.4,-8.1 -4.6,2.9 -1.1,4 -6.3,2.6 -0.3,2.9 -12.1,0 -1.8,-2.9 -8.7,-0.4 -4.4,2.3 -3.3,-1.2 -6.5,-8 -2.1,-3.8 -8.8,1.9 -3.2,6.4 -2.9,12.3 -4.1,2.6 -3.8,1.6 8.4,5.4 6.8,5.5 0.1,4.5 8.3,7.2 5.2,6 3.2,8.3 9.2,5.5 2,4.4 7.5,11.4 5.5,1.7 3.2,-2.3 5.7,0.9 6.8,-2.9 2.9,5.9 10.9,9.2 0,0 5,-3.8 7.8,3.1 9.8,-3.3 8.6,0.1 7.4,-6.4 7.4,-8.3 8.1,-9.1 -7.4,-15 -5.7,-3.2 -2.2,-5.6 -6.3,-6.7 -7.5,-1 4,-7.9 6.4,-0.3 1.8,-4.2 -0.4,-10.8 -1.7,-0.3 0,-6.9 z" style="fill:#f2f2f2" class="PXXisKny_37"></path>
  <path inkscape:connector-curvature="0" id="SN" data-name="Senegal" data-id="SN" d="m 148.8,315.1 -7.8,-9.5 -7.2,-10.2 -7.9,-3.7 -5.7,-4 -6.8,0.1 -5.9,3 -6,-1.2 -4.2,4.5 -3,7.1 -6.1,9.7 -5.4,2.6 6,4.9 4.8,10.8 13.2,-0.4 2.8,-3.3 3.8,-0.2 4.7,3.4 3.8,0.1 4,-2.3 2.4,4 -5.3,3.1 -5.2,-0.3 -5.2,-2.9 -4.5,3.2 -2.2,0.1 -3,1.9 -11,-0.2 1.8,10.6 6.5,-2.3 4,0.5 3.3,-1.6 22.4,0.6 5.8,0.1 8.7,3.4 2.7,-0.3 0.9,-1.6 6.6,1.1 1.8,-0.7 0.6,-4.4 -1,-5.3 -4.5,-3.9 -2.3,-7.9 -0.4,-8.6 z" style="fill:#f2f2f2" class="PXXisKny_38"></path>
  <path inkscape:connector-curvature="0" id="SL" data-name="Sierra Leone" data-id="SL" d="m 171.5,401 -3.3,0.8 0.1,-5.1 -1.9,-3.6 0.4,-4 -2.6,-5.8 -3.3,-5 -9.7,0 -2.9,2.6 -3.3,0.3 -2.1,3 -1.5,3.8 -6.5,6.1 1.4,10.3 2.1,5 6.3,7.4 8.7,5.6 3.3,1 2.9,-4.4 0.7,-4 5.5,-7.5 5.7,-6.5 z" style="fill:#f2f2f2" class="PXXisKny_39"></path>
  <path inkscape:connector-curvature="0" id="SZ" data-name="Swaziland" data-id="SZ" d="m 674,874.9 -5.8,-2.6 -3.5,1 -1.4,4 -3.6,5.2 -0.2,4.8 6.6,7.5 7,-1.5 2.8,-6.1 -0.6,-6.1 -1.3,-6.2 z" style="fill:#f2f2f2" class="PXXisKny_40"></path>
  <path inkscape:connector-curvature="0" id="TD" data-name="Chad" data-id="TD" d="m 582.5,246.4 -48.7,-26.5 -48.4,-26.5 -11.9,7.6 3.4,21.5 4.6,3.6 0.3,4.4 5.1,4.7 -2.5,6 -4,28.1 -0.2,18 -15.2,13 -4.9,18.2 5.1,5.2 0.1,8.9 7.8,0.3 -1.1,6.5 4.9,8.9 1,9.1 -0.4,9.2 6.8,12.6 -6.8,-0.1 -3.4,0.9 -5.6,-1.3 -2.5,6.5 7.2,8.1 5.3,2.3 1.8,5.7 3.9,9.6 -1.8,3.7 10,-1 2.2,-3.6 2.1,0.3 3,3.1 15.3,-5.3 5.1,-5.4 6.3,-4.8 -1.2,-4.9 3.4,-1.2 11.8,0.8 11.3,-6.4 8.6,-15.1 6,-5.6 7.7,-2.3 0.1,-3.4 -4.6,-4.1 -0.3,-8 -2.6,-5.4 -4.3,0.8 1.2,-5 3,-5.8 -1.5,-5.7 3.8,-4.3 -2.6,-3.2 3,-8.5 5.2,-10.2 10.5,0.9 -2.4,-54.9 z" style="fill:#f2f2f2" class="PXXisKny_41"></path>
  <path inkscape:connector-curvature="0" id="TG" data-name="Togo" data-id="TG" d="m 307.1,365.2 -10.7,-0.3 -0.9,4.3 5.1,7.1 0,10.1 1.2,10.9 3,5 -2.7,12.5 1,6.8 3.2,8.8 2.8,4.9 9.8,-3 -3,-9.5 0.5,-31.8 -2.5,-2.8 -0.4,-6.8 -4.3,-4.9 -3.7,-4.1 1.6,-7.2 z" style="fill:#f2f2f2" class="PXXisKny_42"></path>
  <path inkscape:connector-curvature="0" id="TN" data-name="Tunisia" data-id="TN" d="m 429.5,59 -4.5,-2.2 -3.2,-6.6 -6,-0.2 -2.4,-7.6 7.3,-7 1.1,-12.1 -4.1,-3.5 -0.2,-6.5 5.5,-7 -0.9,-2.7 -9.5,5.2 0.1,-7.1 -8.1,-1.7 -12.2,5.7 -2.2,7.2 2.3,13.4 -2.4,11.6 -7,7.8 1.3,10.4 9.7,8.3 0.2,3.3 7.3,5.6 5.7,24.7 5.6,-3.2 0.9,-5.8 -1.5,-5.7 7.9,-5.3 3.4,-4.4 5.6,-4 0.3,-10.6 z" style="fill:#f2f2f2" class="PXXisKny_43"></path>
  <path inkscape:connector-curvature="0" id="TZ" data-name="Tanzania" data-id="TZ" d="m 672.2,531.3 -4.3,1.7 4.8,7.8 -0.8,8.1 -3.5,1.8 0,0 0.6,5.4 2.6,3.2 0.1,4.5 -3,2.9 -4.9,7.2 -4.5,5 -1.2,0.2 -0.7,5.9 2.3,2 -0.5,5.9 2.3,5.5 -2.9,5.3 9.7,9.4 0.8,8.5 5.9,14.2 0,0 0.6,0.4 4.8,2.3 7.7,2.4 6.8,4.1 11.9,2.6 2.3,3.8 0,0 0.8,-2.7 6.2,7.4 0.6,14.5 3.9,5.3 -0.1,0.2 4.7,-0.5 14.4,3.9 3.3,-1.8 8.4,-0.3 4.5,-4.2 7.3,0.2 13.4,-5.3 10,-8.1 0,0 -4.4,-3 -4.7,-13.6 -4,-8.7 1,-6.6 -0.6,-4.2 3.5,-8.4 -0.3,-3.6 -7.7,-5 -0.6,-7.8 5.9,-17.1 -17.3,-13.8 -0.7,-8 -44.1,-28.2 0,0 -6,6.1 -4.1,6.3 4.8,4.7 -7,3.4 -1.5,-1.6 -7.1,0.9 -5.5,3.1 -3.3,-5.4 2.3,-9.7 0.5,-8.3 0,0 0,0 -13.4,-0.2 z" style="fill:#f2f2f2" class="PXXisKny_44"></path>
  <path inkscape:connector-curvature="0" id="UG" data-name="Uganda" data-id="UG" d="m 711.3,458.5 -7.4,6.4 -8.6,-0.1 -9.8,3.3 -7.8,-3.1 -5,3.8 0,0 -0.6,16.1 4.9,1.9 -3.9,4.9 -4.7,3.7 -4.6,7.2 -2.6,6.4 -0.6,11.1 -2.9,5.3 -0.1,10.5 2.9,1.4 7.4,-4.3 4.3,-1.7 13.4,0.2 0,0 -0.7,-5.3 5.7,-8.1 7.7,-2 5.2,-3.3 6.3,2.7 0.6,1 0,-0.7 3.5,-5.6 5.9,-9.2 4.4,-10.1 -5.5,-15.8 -1.5,-7 -5.9,-9.6 z" style="fill:#f2f2f2" class="PXXisKny_45"></path>
  <path inkscape:connector-curvature="0" id="ZA" data-name="South Africa" data-id="ZA" d="m 522.3,999 5.3,-0.3 7.5,-5.3 10,-2.2 12.3,-5.5 4.7,0.7 7.2,-1.7 12.3,2.7 5.9,-2.6 6.9,2 1.8,-3.8 6,-0.8 12.6,-5.3 9.3,-6.3 8.9,-8.3 14.4,-14.2 7.5,-9.9 3.9,-7.1 5.5,-7 2.5,-2 8.6,-7 3.5,-6.2 2.3,-11.5 3.7,-10.1 -9,-0.1 -2.8,6.1 -7,1.5 -6.6,-7.5 0.2,-4.8 3.6,-5.2 1.4,-4 3.5,-1 5.8,2.6 -0.7,-5 3,-15.4 -2.5,-9.9 -4.7,-19.5 -6.3,-1.3 -4.1,1.6 -5.7,-2.3 -4.9,-0.2 -17.3,10.2 -11.2,10.3 -4.4,9.3 -3.9,5.2 -6.5,1.1 -2.4,6.6 -1.4,4.3 -7.8,3.2 -9.6,-0.6 -5.5,-3.9 -4.9,-1.7 -6,3.2 -3.2,6.6 -5.8,4.2 -6.2,6.2 -8.5,1.4 -2.5,-4.9 1.5,-8.4 -6.5,-13.2 -3.2,-2 -2.2,51.1 -10.8,7.1 -6.4,1 -7.3,-2.6 -5.2,-1 -1.7,-6 -4.5,-3.7 -6,6.8 7.7,17.9 0,0.1 5.4,11.7 6.9,12.8 -0.2,10.6 -3.9,2.5 3.2,9.3 -0.5,8.1 1.3,3.8 0.7,-1.9 4.6,6.2 3.8,0.2 4.6,5 z m 103,-59.1 -4.3,1.3 -8,-10.6 6.9,-8.7 6.8,-5.4 5.7,-2.8 4.8,4.2 3.8,4.2 -4.1,6.7 -2.4,4.5 -6.7,2.2 -2.5,4.4 z" style="fill:#f2f2f2" class="PXXisKny_46"></path>
  <path inkscape:connector-curvature="0" id="ZM" data-name="Zambia" data-id="ZM" d="m 671.3,636 -4.1,-1.1 0.7,-3 -2.1,-0.6 -16.4,2.3 -3.3,1.7 -3.6,8.8 2.6,6.1 -2.5,16.4 -1.9,13.9 3.2,2.4 8.4,5.4 3.4,-2.5 0.6,14.9 -9.3,-0.1 -4.8,-7.6 -4.3,-5.9 -9.2,-1.9 -2.6,-7.3 -7.5,4.4 -9.7,-2 -3.9,-6.2 -7.7,-1.3 -5.7,0.3 -0.6,-4.3 -4.2,-0.3 1.2,4.3 -1.5,6.7 2,6.5 -2,5.2 1,4.7 -25.3,-0.1 -1.6,44 7.8,11.3 7.6,8.6 9.9,-3.1 7.8,0.8 4.7,3.1 0,1.2 2.2,1 13.4,1.5 3.8,1.6 4.1,-0.3 7,-9 10.9,-11.4 4.4,-1 1.7,-4.8 7,-5.5 9.3,-1.9 -0.8,-9.9 37.1,-11.4 -6.2,-3.6 4.1,-12.8 4,-4.8 -2,-11.5 2.7,-11.2 2.2,-3.8 -2.8,-11.7 -5.6,-6.2 -6.8,-4.1 -7.7,-2.4 -4.8,-2.3 -0.6,-0.4 0,0 0.9,2.3 -2,0.8 -2.6,-2.9 z" style="fill:#f2f2f2" class="PXXisKny_47"></path>
  <path inkscape:connector-curvature="0" id="ZW" data-name="Zimbabwe" data-id="ZW" d="m 669.1,825.1 13.4,-15.7 3.6,-9.9 1.9,-1.3 1.7,-8.1 -1.7,-4.1 1,-10.4 2.8,-9.6 0.8,-17.5 -6.1,-4.4 -5.7,-1 -2.5,-3.4 -5.5,-3 -10,0.3 -0.6,-5.1 -9.3,1.9 -7,5.5 -1.7,4.8 -4.4,1 -10.9,11.4 -7,9 -4.1,0.3 -3.8,-1.6 -13.4,-1.5 4.2,11.1 2.3,2.4 3.5,8 13,15.2 5.1,1.5 -0.2,4.9 3.1,8.8 9.2,2.1 7.3,6.2 4.9,0.2 5.7,2.3 4.1,-1.6 6.3,1.3 z" style="fill:#f2f2f2" class="PXXisKny_48"></path>
  <path inkscape:connector-curvature="0" id="SO" data-name="Somalia" data-id="SO" d="m 832.6,372.8 -5.7,-5.8 -2.5,-5.7 -4.1,-2.6 -4.2,7.4 -2.5,4.9 4.8,7.7 4.6,6.6 4.8,5 40.3,16.4 10.3,-0.1 -33.5,41.5 -15.9,0.6 -10.7,9.8 -7.8,0.2 -3.3,4.4 -10.5,15.7 0.4,50.4 7.2,11.4 2.7,-3.3 2.9,-7.3 13.4,-16.7 11.4,-10.6 18.1,-13.7 12.1,-11.2 14.1,-18.9 10.1,-15.5 10,-20.2 7,-17.7 5.4,-15.5 2.9,-14.9 2.4,-5 -0.4,-7.3 0.8,-8 -0.5,-3.9 -4.6,0.1 -5.5,4.7 -6.4,1.4 -5.5,2.1 -3.9,0.2 0,0 -6.9,0.5 -4.2,2.6 -6,0.9 -10.5,4.3 -13.2,1.6 -11.3,3.5 -6.1,0 z" style="fill:#f2f2f2" class="PXXisKny_49"></path>
<style data-made-with="vivus-instant">.PXXisKny_0{stroke-dasharray:713 715;stroke-dashoffset:714;animation:PXXisKny_draw 4000ms ease-in-out 0ms forwards;}.PXXisKny_1{stroke-dasharray:82 84;stroke-dashoffset:83;animation:PXXisKny_draw 4000ms ease-in-out 40ms forwards;}.PXXisKny_2{stroke-dasharray:206 208;stroke-dashoffset:207;animation:PXXisKny_draw 4000ms ease-in-out 81ms forwards;}.PXXisKny_3{stroke-dasharray:294 296;stroke-dashoffset:295;animation:PXXisKny_draw 4000ms ease-in-out 122ms forwards;}.PXXisKny_4{stroke-dasharray:415 417;stroke-dashoffset:416;animation:PXXisKny_draw 4000ms ease-in-out 163ms forwards;}.PXXisKny_5{stroke-dasharray:485 487;stroke-dashoffset:486;animation:PXXisKny_draw 4000ms ease-in-out 204ms forwards;}.PXXisKny_6{stroke-dasharray:305 307;stroke-dashoffset:306;animation:PXXisKny_draw 4000ms ease-in-out 244ms forwards;}.PXXisKny_7{stroke-dasharray:470 472;stroke-dashoffset:471;animation:PXXisKny_draw 4000ms ease-in-out 285ms forwards;}.PXXisKny_8{stroke-dasharray:981 983;stroke-dashoffset:982;animation:PXXisKny_draw 4000ms ease-in-out 326ms forwards;}.PXXisKny_9{stroke-dasharray:425 427;stroke-dashoffset:426;animation:PXXisKny_draw 4000ms ease-in-out 367ms forwards;}.PXXisKny_10{stroke-dasharray:81 83;stroke-dashoffset:82;animation:PXXisKny_draw 4000ms ease-in-out 408ms forwards;}.PXXisKny_11{stroke-dasharray:831 833;stroke-dashoffset:832;animation:PXXisKny_draw 4000ms ease-in-out 448ms forwards;}.PXXisKny_12{stroke-dasharray:617 619;stroke-dashoffset:618;animation:PXXisKny_draw 4000ms ease-in-out 489ms forwards;}.PXXisKny_13{stroke-dasharray:265 267;stroke-dashoffset:266;animation:PXXisKny_draw 4000ms ease-in-out 530ms forwards;}.PXXisKny_14{stroke-dasharray:569 571;stroke-dashoffset:570;animation:PXXisKny_draw 4000ms ease-in-out 571ms forwards;}.PXXisKny_15{stroke-dasharray:286 288;stroke-dashoffset:287;animation:PXXisKny_draw 4000ms ease-in-out 612ms forwards;}.PXXisKny_16{stroke-dasharray:250 252;stroke-dashoffset:251;animation:PXXisKny_draw 4000ms ease-in-out 653ms forwards;}.PXXisKny_17{stroke-dasharray:322 324;stroke-dashoffset:323;animation:PXXisKny_draw 4000ms ease-in-out 693ms forwards;}.PXXisKny_18{stroke-dasharray:87 89;stroke-dashoffset:88;animation:PXXisKny_draw 4000ms ease-in-out 734ms forwards;}.PXXisKny_19{stroke-dasharray:99 101;stroke-dashoffset:100;animation:PXXisKny_draw 4000ms ease-in-out 775ms forwards;}.PXXisKny_20{stroke-dasharray:78 80;stroke-dashoffset:79;animation:PXXisKny_draw 4000ms ease-in-out 816ms forwards;}.PXXisKny_21{stroke-dasharray:426 428;stroke-dashoffset:427;animation:PXXisKny_draw 4000ms ease-in-out 857ms forwards;}.PXXisKny_22{stroke-dasharray:177 179;stroke-dashoffset:178;animation:PXXisKny_draw 4000ms ease-in-out 897ms forwards;}.PXXisKny_23{stroke-dasharray:719 721;stroke-dashoffset:720;animation:PXXisKny_draw 4000ms ease-in-out 938ms forwards;}.PXXisKny_24{stroke-dasharray:82 84;stroke-dashoffset:83;animation:PXXisKny_draw 4000ms ease-in-out 979ms forwards;}.PXXisKny_25{stroke-dasharray:630 632;stroke-dashoffset:631;animation:PXXisKny_draw 4000ms ease-in-out 1020ms forwards;}.PXXisKny_26{stroke-dasharray:475 477;stroke-dashoffset:476;animation:PXXisKny_draw 4000ms ease-in-out 1061ms forwards;}.PXXisKny_27{stroke-dasharray:743 745;stroke-dashoffset:744;animation:PXXisKny_draw 4000ms ease-in-out 1102ms forwards;}.PXXisKny_28{stroke-dasharray:745 747;stroke-dashoffset:746;animation:PXXisKny_draw 4000ms ease-in-out 1142ms forwards;}.PXXisKny_29{stroke-dasharray:622 624;stroke-dashoffset:623;animation:PXXisKny_draw 4000ms ease-in-out 1183ms forwards;}.PXXisKny_30{stroke-dasharray:288 290;stroke-dashoffset:289;animation:PXXisKny_draw 4000ms ease-in-out 1224ms forwards;}.PXXisKny_31{stroke-dasharray:601 603;stroke-dashoffset:602;animation:PXXisKny_draw 4000ms ease-in-out 1265ms forwards;}.PXXisKny_32{stroke-dasharray:663 665;stroke-dashoffset:664;animation:PXXisKny_draw 4000ms ease-in-out 1306ms forwards;}.PXXisKny_33{stroke-dasharray:490 492;stroke-dashoffset:491;animation:PXXisKny_draw 4000ms ease-in-out 1346ms forwards;}.PXXisKny_34{stroke-dasharray:79 81;stroke-dashoffset:80;animation:PXXisKny_draw 4000ms ease-in-out 1387ms forwards;}.PXXisKny_35{stroke-dasharray:355 357;stroke-dashoffset:356;animation:PXXisKny_draw 4000ms ease-in-out 1428ms forwards;}.PXXisKny_36{stroke-dasharray:790 792;stroke-dashoffset:791;animation:PXXisKny_draw 4000ms ease-in-out 1469ms forwards;}.PXXisKny_37{stroke-dasharray:485 487;stroke-dashoffset:486;animation:PXXisKny_draw 4000ms ease-in-out 1510ms forwards;}.PXXisKny_38{stroke-dasharray:300 302;stroke-dashoffset:301;animation:PXXisKny_draw 4000ms ease-in-out 1551ms forwards;}.PXXisKny_39{stroke-dasharray:130 132;stroke-dashoffset:131;animation:PXXisKny_draw 4000ms ease-in-out 1591ms forwards;}.PXXisKny_40{stroke-dasharray:62 64;stroke-dashoffset:63;animation:PXXisKny_draw 4000ms ease-in-out 1632ms forwards;}.PXXisKny_41{stroke-dasharray:650 652;stroke-dashoffset:651;animation:PXXisKny_draw 4000ms ease-in-out 1673ms forwards;}.PXXisKny_42{stroke-dasharray:168 170;stroke-dashoffset:169;animation:PXXisKny_draw 4000ms ease-in-out 1714ms forwards;}.PXXisKny_43{stroke-dasharray:268 270;stroke-dashoffset:269;animation:PXXisKny_draw 4000ms ease-in-out 1755ms forwards;}.PXXisKny_44{stroke-dasharray:525 527;stroke-dashoffset:526;animation:PXXisKny_draw 4000ms ease-in-out 1795ms forwards;}.PXXisKny_45{stroke-dasharray:252 254;stroke-dashoffset:253;animation:PXXisKny_draw 4000ms ease-in-out 1836ms forwards;}.PXXisKny_46{stroke-dasharray:811 813;stroke-dashoffset:812;animation:PXXisKny_draw 4000ms ease-in-out 1877ms forwards;}.PXXisKny_47{stroke-dasharray:582 584;stroke-dashoffset:583;animation:PXXisKny_draw 4000ms ease-in-out 1918ms forwards;}.PXXisKny_48{stroke-dasharray:305 307;stroke-dashoffset:306;animation:PXXisKny_draw 4000ms ease-in-out 1959ms forwards;}.PXXisKny_49{stroke-dasharray:608 610;stroke-dashoffset:609;animation:PXXisKny_draw 4000ms ease-in-out 2000ms forwards;}@keyframes PXXisKny_draw{100%{stroke-dashoffset:0;}}@keyframes PXXisKny_fade{0%{stroke-opacity:1;}96.07843137254902%{stroke-opacity:1;}100%{stroke-opacity:0;}}</style></svg>
